<?xml version="1.0" encoding="UTF-8" standalone="no"?><!DOCTYPE svg PUBLIC "-//W3C//DTD SVG 1.1//EN" "http://www.w3.org/Graphics/SVG/1.1/DTD/svg11.dtd"><svg width="100%" height="100%" viewBox="0 0 1286 1445" version="1.1" xmlns="http://www.w3.org/2000/svg" xmlns:xlink="http://www.w3.org/1999/xlink" xml:space="preserve" xmlns:serif="http://www.serif.com/" style="fill-rule:evenodd;clip-rule:evenodd;stroke-linejoin:round;stroke-miterlimit:2;"><g><g><path d="M1259.51,800.211l0,-0.42l-2.537,-0l-50.096,-8.251c-5.125,-303.378 -250.912,-549.172 -554.267,-554.281l-8.47,-51.438l-0,-1.208l-0.2,-0l-1.171,-7.117l-1.171,7.117l-0.008,-0l-0,0.05l-8.671,52.601c-303.138,5.338 -548.675,251.019 -553.825,554.234l-52,8.568l-0.621,-0l-0,0.1l-7.504,1.237l60.133,9.905c5.358,303.007 250.788,548.459 553.767,553.818l9.904,60.143l1.237,-7.496l0.392,-0l0,-2.388l8.275,-50.251c115.571,-1.962 222.775,-38.849 311.508,-100.555l0.696,0.696l3.917,-3.9c141.5,-100.493 234.821,-264.541 238.075,-450.171l59.687,-9.834l-7.05,-1.159Zm-102.283,-186.567l-320.967,-324.563c148.488,56.243 266.359,175.279 320.967,324.563Zm-356.275,-336.564l367.846,371.967c10.562,36.462 17.425,74.482 20.158,113.628l-248.491,-250.432l21.191,-29.553l-29.512,21.169l-246.471,-248.394c39.762,3.076 78.329,10.455 115.279,21.615Zm-140.092,-22.952l257.559,259.569l-54.45,39.05l-191.071,-192.285l-17.542,-106.501c1.842,0.042 3.671,0.108 5.504,0.167Zm157.721,742.818l-49.587,-35.566l33.658,-34.449l35.313,49.242l-19.384,20.773Zm29.284,-6.959l41.279,57.568l-56.913,-40.82l15.634,-16.748Zm-92.571,-38.432l-49.567,-35.55l51.654,-52.204l35.404,49.379l-37.491,38.375Zm-359.729,69.202l-186.221,-188.001l105.737,17.414l118.334,117.807l-37.85,52.78Zm2.341,26.048l-1.058,0.758l0.758,-1.058l0.3,0.3Zm70.421,-440.332l49.542,35.528l-33.317,35.516l-35.508,-49.522l19.283,-21.522Zm-29.233,7.655l-42.254,-58.927l57.866,41.5l-15.612,17.427Zm92.437,37.674l49.45,35.47l-50.962,53.651l-35.563,-49.593l37.075,-39.528Zm63.129,45.279l31.675,22.715c-32.583,6.663 -58.266,32.461 -64.787,65.093l-21.638,-30.169l54.75,-57.639Zm-41.791,104.305l-45.571,63.552l-385.783,-63.535l385.783,-63.564l45.571,63.547Zm-67.404,122.599l35.404,34.628l-49.271,35.341l-21.746,-20.302l35.613,-49.667Zm-42.213,30.27l-99.871,-99.422l115.329,18.998l24.525,24.664l-39.983,55.76Zm43.558,-75.799l9.65,1.592l-3.383,4.717l-6.267,-6.309Zm-46.758,108.856l17.725,16.552l-46.158,33.107l-4.163,-4.205l32.596,-45.454Zm36.492,23.602l117.204,116.678l18.417,111.843l-188.663,-190.471l53.042,-38.05Zm13.733,-9.847l55.425,-39.753l24.763,24.906l18.65,113.244l-98.838,-98.397Zm69.142,-49.596l4.762,-3.413l1.621,9.83l-6.383,-6.417Zm-24.796,-2.725l-39.333,-38.462l35.562,-49.592l53.158,52.638l-49.387,35.416Zm6.067,-101.776l20.908,-29.157c6.65,32.628 32.479,58.347 65.154,64.852l-29.004,20.802l-57.058,-56.497Zm35.895,-45.775c0,-36.62 29.792,-66.415 66.413,-66.415c36.612,0 66.404,29.795 66.404,66.415c0,36.628 -29.787,66.423 -66.404,66.423c-36.621,-0 -66.413,-29.795 -66.413,-66.423Zm225.309,-124.316l-34.875,-34.086l49.258,-35.329l21.204,19.786l-35.587,49.629Zm110.637,66.177l-123.041,-20.268l43.133,-60.16l79.908,80.428Zm-116.887,-141.296l-99.504,-100.155l-18.575,-112.79l172.687,173.779l-54.608,39.166Zm-13.721,9.838l-60.517,43.404l-20.591,-125.045l81.108,81.641Zm-28.654,41.058l38.804,37.929l-35.554,49.579l-52.634,-52.088l49.384,-35.42Zm-6.588,101.222l-22.237,31.015c-6.517,-32.636 -32.2,-58.438 -64.779,-65.102l30.479,-21.86l56.537,55.947Zm-22.287,63.914l23.133,32.261l-55.517,56.11l-32.758,-23.498c32.675,-6.509 58.504,-32.236 65.142,-64.873Zm8.737,-16.414l45.525,-63.485l385.363,63.477l-385.363,63.493l-45.525,-63.485Zm207.5,-53.696l-98.154,-98.793l39.2,-54.672l170.817,171.891l-111.863,-18.426Zm-93.354,-134.088l-17.187,-16.035l59.058,-42.358l-41.871,58.393Zm-204.512,-333.535l63.537,385.773l-63.3,45.404l-63.712,-45.695l63.475,-385.482Zm-12.596,-26.09l-25.6,155.465l-128.679,-129.508c48.829,-15.689 100.604,-24.715 154.279,-25.957Zm-171.842,31.924l142.9,143.834l-13.262,80.533l-194.888,-195.985c21,-10.822 42.788,-20.306 65.25,-28.382Zm-80.562,36.616l206.858,208.027l-13.258,80.516l-250.646,-252.011c18.2,-13.309 37.246,-25.519 57.046,-36.532Zm-70.488,46.65l260.754,262.17l-3.854,23.377l-231.083,-165.732l-75.588,-75.998c15.684,-15.577 32.309,-30.212 49.771,-43.817Zm-61.421,55.734l132.725,133.442l117.884,164.39l-40.975,6.751l-252.338,-253.711c13.213,-17.81 27.475,-34.799 42.704,-50.872Zm-52.546,64.611l241.984,243.305l-80.167,13.21l-197.154,-198.277c10.587,-20.189 22.396,-39.628 35.337,-58.238Zm-43.27,73.898l184.887,185.946l-83.662,13.785l-129.538,-128.954c7.829,-24.377 17.292,-48.021 28.313,-70.777Zm-33.796,88.833l114.75,114.236l-75.067,12.368l-54.758,-55.285c3.471,-24.319 8.508,-48.133 15.075,-71.319Zm-17.692,92.359l37.208,37.566l-39.962,6.584c0.333,-14.868 1.254,-29.595 2.754,-44.15Zm-2.75,69.464l85.504,14.081l204.404,206.357l-39.491,55.071l-249.3,-251.344c-0.538,-8.013 -0.929,-16.068 -1.117,-24.165Zm48.354,212.395l267.142,270.6c-118.054,-55.393 -213.254,-151.706 -267.142,-270.6Zm307.25,287.506l-323.016,-327.201l-0.259,0.258c-14.137,-39.049 -23.925,-80.157 -28.833,-122.732l237.075,239.018l-12.038,16.785l16.759,-12.022l234.446,236.363c-43.121,-5.321 -84.696,-15.684 -124.134,-30.469Zm147.55,32.853l1.221,-1.213l-245.362,-247.373l54.966,-39.428l207.059,209.044l13.275,80.582c-10.459,-0.241 -20.846,-0.787 -31.159,-1.612Zm43.817,-24.111l-63.483,-385.481l63.712,-45.7l63.308,45.404l-63.537,385.777Zm12.654,25.728l5.879,-35.704l33.109,33.428c-12.875,1.205 -25.871,1.984 -38.988,2.276Zm60.092,-4.655l-50.867,-51.351l13.333,-80.969l116.359,115.831c-25.563,7.367 -51.892,12.905 -78.825,16.489Zm96.858,-22.052l-131.062,-130.475l13.216,-80.257l183.463,184.505c-21.163,10.105 -43.075,18.868 -65.617,26.227Zm81.342,-34.045l-195.85,-196.964l13.271,-80.561l241.112,242.426c-18.712,12.864 -38.25,24.602 -58.533,35.099Zm72.304,-44.883l-251.546,-252.911l6.938,-42.116l155.241,111.347l140.475,141.234c-16.154,15.139 -33.216,29.32 -51.108,42.446Zm63.104,-54.022l-70.471,-70.848l3,2.15l-172.162,-240.097l22.2,-3.659l261.508,262.929c-13.696,17.385 -28.421,33.924 -44.075,49.525Zm54.258,-62.922l-251.495,-252.865l80.15,-13.206l208.116,209.291c-11.104,19.714 -23.387,38.674 -36.771,56.78Zm45.071,-72.065l-196.225,-197.331l79.892,-13.159l144.95,145.892c-8.158,22.244 -17.75,43.804 -28.617,64.598Zm34.675,-82.158l-130.816,-131.666l157.85,-26.007c-1.259,54.922 -10.671,107.856 -27.034,157.673Zm-82.533,-200.889l-189.063,-190.259l39.08,-54.501l259.545,261.57c0.009,0.412 0.005,0.825 0.013,1.237l-109.575,-18.047Z" style="fill-rule:nonzero;"/><path d="M349.871,309.533l13.9,-8.03l-22.096,-38.245l-5.95,3.442l-0.063,-0.113l-2.216,1.275l0.071,0.117l-5.742,3.321l22.096,38.233Z" style="fill-rule:nonzero;"/><path d="M143.346,522.015l8.025,-13.906l-38.259,-22.068l-3.425,5.95l-0.004,-0.004l-1.279,2.209l0.013,0.008l-3.313,5.746l38.242,22.065Z" style="fill-rule:nonzero;"/><path d="M105.183,1102.63l3.367,5.821l-0.079,0.046l1.312,2.201l0.046,-0.03l3.388,5.868l38.237,-22.086l-8.037,-13.909l-38.234,22.089Z" style="fill-rule:nonzero;"/><path d="M327.945,1331.25l13.91,8.024l22.067,-38.265l-13.909,-8.023l-22.068,38.264Z"/><path d="M930.354,1296.32l-0.017,-0.029l-2.195,1.279l0.008,0.021l-5.808,3.35l22.066,38.249l13.909,-8.025l-22.063,-38.25l-5.9,3.405Z" style="fill-rule:nonzero;"/><path d="M1139.33,1086.19l-0.008,-0.004l-1.271,2.196l0.008,0.004l-3.379,5.846l38.233,22.09l3.417,-5.917l0.004,-0l0.608,-1.055l4.005,-6.929l-38.234,-22.094l-3.383,5.863Z" style="fill-rule:nonzero;"/><path d="M1180.83,499.834l-3.488,-6.059l0.055,-0.034l-1.275,-2.191l-0.046,0.025l-3.254,-5.647l-38.25,22.056l8.02,13.91l38.238,-22.06Z" style="fill-rule:nonzero;"/><path d="M958.067,271.275l-6.017,-3.475l0.096,-0.159l-2.192,-1.241l-0.079,0.141l-5.708,-3.3l-22.092,38.237l13.896,8.034l22.096,-38.237Z" style="fill-rule:nonzero;"/><ellipse cx="642.992" cy="801.195" rx="22.729" ry="22.731"/><ellipse cx="644.587" cy="85.491" rx="22.729" ry="22.731" style="fill:#aae59e;"/><path d="M686.767,159.681c25.783,-14.722 43.237,-42.433 43.237,-74.19c0,-47.104 -38.317,-85.424 -85.417,-85.424c-47.1,-0 -85.416,38.32 -85.416,85.424c-0,31.632 17.321,59.239 42.937,74.007c-335.562,21.16 -602.104,300.861 -602.104,641.701c0,354.57 288.442,643.034 642.979,643.034c354.546,0 642.984,-288.468 642.984,-643.034c0.004,-339.856 -265,-618.932 -599.2,-641.518Zm-110.93,-74.19c0,-37.912 30.842,-68.756 68.75,-68.756c37.909,-0 68.75,30.844 68.75,68.756c0,37.912 -30.841,68.757 -68.75,68.757c-37.908,-0 -68.75,-30.845 -68.75,-68.757Zm67.146,1342.07c-345.346,0 -626.312,-280.984 -626.312,-626.366c-0,-345.382 280.966,-626.375 626.312,-626.375c345.354,0 626.317,280.993 626.317,626.371c-0,345.378 -280.963,626.37 -626.317,626.37Z" style="fill-rule:nonzero;"/><path d="M686.142,85.491c-0,-22.952 -18.605,-41.558 -41.555,-41.558c-22.95,0 -41.554,18.606 -41.554,41.558c0,22.952 18.604,41.558 41.554,41.558c22.95,0 41.555,-18.606 41.555,-41.558Zm-63.359,0c0,-12.047 9.763,-21.806 21.804,-21.806c12.042,0 21.805,9.763 21.805,21.806c-0,12.043 -9.763,21.806 -21.805,21.806c-12.041,0 -21.804,-9.759 -21.804,-21.806Z" style="fill-rule:nonzero;"/></g></g></svg>