<svg width="100%" height="100%" viewBox="0 0 100 100" version="1.1" xmlns="http://www.w3.org/2000/svg" xmlns:xlink="http://www.w3.org/1999/xlink" xml:space="preserve" xmlns:serif="http://www.serif.com/" style="fill-rule:evenodd;clip-rule:evenodd;stroke-linejoin:round;stroke-miterlimit:2;">
    <g>
        <g>
            <path d="M50,0C22.386,0 0,22.385 0,50C0,77.613 22.386,100 50,100C77.614,100 100,77.613 100,50C100,22.385 77.614,0 50,0ZM83.375,82.065L81.427,80.118L80.118,81.427L82.065,83.375C79.602,85.742 76.886,87.848 73.947,89.628L72.56,87.226L70.956,88.152L72.341,90.551C69.37,92.192 66.197,93.508 62.874,94.468L62.157,91.795L60.368,92.274L61.086,94.951C58.526,95.579 55.885,95.991 53.179,96.175L50,89.814L46.82,96.174C44.114,95.99 41.472,95.578 38.913,94.95L39.63,92.273L37.841,91.794L37.125,94.467C33.801,93.507 30.628,92.191 27.657,90.55L29.042,88.151L27.438,87.225L26.052,89.627C23.114,87.847 20.397,85.741 17.934,83.374L19.882,81.426L18.572,80.117L16.624,82.064C14.257,79.601 12.151,76.884 10.372,73.946L12.774,72.559L11.848,70.955L9.448,72.341C7.808,69.369 6.491,66.197 5.531,62.872L8.203,62.156L7.724,60.367L5.049,61.084C4.421,58.525 4.008,55.885 3.824,53.179L10.184,49.999L3.823,46.819C4.007,44.113 4.42,41.471 5.049,38.912L7.724,39.629L8.203,37.84L5.531,37.124C6.491,33.799 7.808,30.626 9.449,27.655L11.848,29.04L12.774,27.436L10.372,26.049C12.151,23.111 14.256,20.395 16.623,17.932L18.572,19.881L19.882,18.571L17.933,16.622C20.396,14.255 23.113,12.15 26.052,10.371L27.438,12.773L29.042,11.847L27.657,9.447C30.628,7.807 33.801,6.49 37.125,5.529L37.841,8.201L39.63,7.722L38.914,5.047C41.472,4.419 44.114,4.006 46.82,3.822L50,10.182L53.18,3.822C55.886,4.006 58.528,4.418 61.086,5.047L60.369,7.722L62.158,8.201L62.875,5.529C66.198,6.49 69.371,7.807 72.342,9.447L70.957,11.847L72.561,12.773L73.948,10.371C76.887,12.15 79.604,14.255 82.067,16.622L80.119,18.571L81.428,19.881L83.377,17.932C85.743,20.395 87.849,23.111 89.628,26.05L87.227,27.436L88.153,29.04L90.551,27.655C92.193,30.626 93.509,33.799 94.47,37.124L91.797,37.84L92.276,39.629L94.952,38.912C95.58,41.471 95.992,44.113 96.176,46.819L89.814,50L96.174,53.18C95.99,55.886 95.578,58.527 94.95,61.085L92.274,60.368L91.795,62.157L94.468,62.873C93.507,66.198 92.191,69.37 90.55,72.342L88.151,70.956L87.225,72.56L89.627,73.947C87.848,76.886 85.743,79.603 83.375,82.065Z" style="fill:rgb(255,192,203);"/>
            <path d="M57.092,38.082C55.938,37.394 54.68,36.864 53.34,36.533L50,22.222L46.661,36.533C44.559,37.053 42.642,38.041 41.039,39.397L36.111,36.111L39.397,41.039C38.041,42.642 37.052,44.558 36.532,46.661L22.222,50L36.532,53.339C36.863,54.679 37.394,55.938 38.082,57.091L22.222,77.778L42.909,61.919C44.063,62.607 45.321,63.138 46.66,63.469L50,77.777L53.34,63.467C55.442,62.946 57.358,61.958 58.96,60.602L63.889,63.888L60.604,58.959C61.959,57.356 62.948,55.44 63.467,53.338L77.777,50L63.466,46.661C63.136,45.321 62.605,44.062 61.917,42.909L77.776,22.223L57.092,38.082ZM39.301,55.5C38.451,53.851 37.963,51.984 37.963,50C37.963,43.352 43.352,37.963 50,37.963C51.984,37.963 53.85,38.451 55.5,39.301L50,43.519C46.42,43.519 43.519,46.42 43.519,50L39.301,55.5ZM54.629,50C54.629,52.557 52.557,54.63 50,54.63C47.443,54.63 45.371,52.557 45.371,50C45.371,47.443 47.443,45.371 50,45.371C52.557,45.371 54.629,47.443 54.629,50ZM62.037,50C62.037,56.647 56.648,62.037 50,62.037C48.016,62.037 46.15,61.549 44.5,60.699L50,56.481C53.579,56.481 56.481,53.579 56.481,50L60.699,44.5C61.549,46.15 62.037,48.016 62.037,50Z" style="fill:rgb(255,192,203);"/>
            <circle cx="50" cy="50" r="2.778" style="fill:rgb(255,192,203);"/>
        </g>
    </g>
</svg>
