<svg width="30px" height="30px" viewBox="0 0 30 30" version="1.1" xmlns="http://www.w3.org/2000/svg" xmlns:xlink="http://www.w3.org/1999/xlink" xml:space="preserve" xmlns:serif="http://www.serif.com/" style="fill-rule:evenodd;clip-rule:evenodd;stroke-linejoin:round;stroke-miterlimit:2;">
    <g transform="matrix(0.0929708,0.00373409,-0.00373409,0.0929708,-1.73186,-3.13215)">
        <g>
            <g transform="matrix(0.878873,-0.0352992,0.0352992,0.878873,20.2898,29.1611)">
                <path d="M14.502,134.748C43.638,41.842 142.57,-9.855 235.477,19.278C328.384,48.414 380.08,147.348 350.946,240.255C321.811,333.158 222.878,384.858 129.971,355.72C37.065,326.587 -14.633,227.653 14.502,134.748Z" style="fill:rgb(168,146,238);"/>
            </g>
            <g transform="matrix(1,0.000484657,-0.000484657,1,-388.566,-520.988)">
                <path d="M426.682,667.856C404.395,750.547 453.364,835.649 536.056,857.934C618.748,880.223 703.85,831.252 726.136,748.562C748.422,665.87 699.454,580.768 616.761,558.48C534.068,536.196 448.968,585.164 426.682,667.856Z" style="fill:none;fill-rule:nonzero;stroke:black;stroke-width:10.38px;"/>
            </g>
            <g transform="matrix(0.95435,-0.29869,0.29869,0.95435,-574.131,-316.21)">
                <path d="M560.802,813.912C613.659,821.76 667.392,772.14 681.631,719.318L675.927,717.779C661.443,771.518 603.87,820.151 550.144,805.667C496.403,791.183 467.887,719.101 482.37,665.363L476.663,663.827C461.334,720.707 491.722,796.039 548.604,811.371C552.667,812.465 556.742,813.31 560.802,813.912Z" style="fill:rgb(39,36,37);fill-rule:nonzero;stroke:black;stroke-width:5.59px;"/>
            </g>
            <g transform="matrix(0.95435,-0.29869,0.29869,0.95435,-574.131,-316.21)">
                <path d="M615.802,651.578C609.105,676.425 610.941,698.528 619.902,700.943C628.864,703.358 641.558,685.173 648.254,660.323C654.951,635.476 653.114,613.374 644.154,610.959C635.192,608.543 622.499,626.729 615.802,651.578Z" style="fill-rule:nonzero;"/>
            </g>
            <g transform="matrix(0.95435,-0.29869,0.29869,0.95435,-574.131,-316.21)">
                <path d="M538.357,630.705C531.659,655.554 533.496,677.655 542.458,680.071C551.419,682.486 564.113,664.3 570.808,639.452C577.506,614.603 575.67,592.502 566.708,590.087C557.746,587.672 545.053,605.858 538.357,630.705Z" style="fill-rule:nonzero;"/>
            </g>
            <g transform="matrix(0.95435,-0.29869,0.29869,0.95435,-574.312,-335.759)">
                <path d="M687.856,747.092C688.673,747.213 689.538,746.992 690.217,746.409C691.452,745.347 691.593,743.483 690.529,742.245C683.539,734.111 674.582,729.591 663.908,728.791C662.28,728.672 660.862,729.893 660.741,731.519C660.619,733.146 661.837,734.57 663.467,734.683C672.653,735.356 680.036,739.101 686.05,746.095C686.532,746.656 687.177,746.992 687.856,747.092Z" style="fill:rgb(39,36,37);fill-rule:nonzero;stroke:black;stroke-width:3.2px;"/>
            </g>
            <g transform="matrix(0.95435,-0.29869,0.29869,0.95435,-574.312,-335.759)">
                <path d="M461.177,686C461.634,686.069 462.112,686.029 462.577,685.867C471.296,682.843 479.558,683.326 487.838,687.35C489.309,688.065 491.074,687.448 491.784,685.983C492.497,684.517 491.885,682.748 490.419,682.036C480.791,677.359 470.774,676.768 460.642,680.288C459.099,680.824 458.284,682.507 458.819,684.048C459.193,685.121 460.125,685.845 461.177,686Z" style="fill:rgb(39,36,37);fill-rule:nonzero;stroke:black;stroke-width:3.2px;"/>
            </g>
        </g>
    </g>
</svg>
